<svg xmlns="http://www.w3.org/2000/svg" xmlns:xlink="http://www.w3.org/1999/xlink" width="125" zoomAndPan="magnify" viewBox="0 0 93.75 93.749997" height="125" preserveAspectRatio="xMidYMid meet" version="1.0"><defs><clipPath id="76679579a4"><path d="M 0 0 L 93.5 0 L 93.5 93.5 L 0 93.5 Z M 0 0 " clip-rule="nonzero"/></clipPath></defs><path fill="#3b76c4" d="M 32.8125 17.1875 C 32.8125 25.816406 25.816406 32.8125 17.1875 32.8125 C 8.558594 32.8125 1.5625 25.816406 1.5625 17.1875 C 1.5625 8.558594 8.558594 1.5625 17.1875 1.5625 C 25.816406 1.5625 32.8125 8.558594 32.8125 17.1875 " fill-opacity="1" fill-rule="nonzero"/><path fill="#f5fff9" d="M 27.433594 28.984375 C 24.691406 31.367188 21.109375 32.8125 17.1875 32.8125 C 13.265625 32.8125 9.683594 31.367188 6.941406 28.984375 C 8.492188 24.828125 12.492188 21.875 17.1875 21.875 C 21.882812 21.875 25.882812 24.828125 27.433594 28.984375 " fill-opacity="1" fill-rule="nonzero"/><path fill="#f5fff9" d="M 23.4375 15.625 C 23.4375 19.078125 20.640625 21.875 17.1875 21.875 C 13.734375 21.875 10.9375 19.078125 10.9375 15.625 C 10.9375 12.171875 13.734375 9.375 17.1875 9.375 C 20.640625 9.375 23.4375 12.171875 23.4375 15.625 " fill-opacity="1" fill-rule="nonzero"/><path fill="#3b76c4" d="M 62.5 46.875 C 62.5 55.503906 55.503906 62.5 46.875 62.5 C 38.246094 62.5 31.25 55.503906 31.25 46.875 C 31.25 38.246094 38.246094 31.25 46.875 31.25 C 55.503906 31.25 62.5 38.246094 62.5 46.875 " fill-opacity="1" fill-rule="nonzero"/><path fill="#f5fff9" d="M 57.121094 58.671875 C 54.378906 61.054688 50.796875 62.5 46.875 62.5 C 42.953125 62.5 39.371094 61.054688 36.628906 58.671875 C 38.179688 54.515625 42.179688 51.5625 46.875 51.5625 C 51.570312 51.5625 55.570312 54.515625 57.121094 58.671875 " fill-opacity="1" fill-rule="nonzero"/><path fill="#f5fff9" d="M 53.125 45.3125 C 53.125 48.765625 50.328125 51.5625 46.875 51.5625 C 43.421875 51.5625 40.625 48.765625 40.625 45.3125 C 40.625 41.859375 43.421875 39.0625 46.875 39.0625 C 50.328125 39.0625 53.125 41.859375 53.125 45.3125 " fill-opacity="1" fill-rule="nonzero"/><path fill="#3b76c4" d="M 92.1875 17.1875 C 92.1875 25.816406 85.191406 32.8125 76.5625 32.8125 C 67.933594 32.8125 60.9375 25.816406 60.9375 17.1875 C 60.9375 8.558594 67.933594 1.5625 76.5625 1.5625 C 85.191406 1.5625 92.1875 8.558594 92.1875 17.1875 " fill-opacity="1" fill-rule="nonzero"/><path fill="#f5fff9" d="M 86.808594 28.984375 C 84.066406 31.367188 80.484375 32.8125 76.5625 32.8125 C 72.640625 32.8125 69.058594 31.367188 66.316406 28.984375 C 67.867188 24.828125 71.867188 21.875 76.5625 21.875 C 81.257812 21.875 85.257812 24.828125 86.808594 28.984375 " fill-opacity="1" fill-rule="nonzero"/><path fill="#f5fff9" d="M 82.8125 15.625 C 82.8125 19.078125 80.015625 21.875 76.5625 21.875 C 73.109375 21.875 70.3125 19.078125 70.3125 15.625 C 70.3125 12.171875 73.109375 9.375 76.5625 9.375 C 80.015625 9.375 82.8125 12.171875 82.8125 15.625 " fill-opacity="1" fill-rule="nonzero"/><path fill="#3b76c4" d="M 32.8125 76.5625 C 32.8125 85.191406 25.816406 92.1875 17.1875 92.1875 C 8.558594 92.1875 1.5625 85.191406 1.5625 76.5625 C 1.5625 67.933594 8.558594 60.9375 17.1875 60.9375 C 25.816406 60.9375 32.8125 67.933594 32.8125 76.5625 " fill-opacity="1" fill-rule="nonzero"/><path fill="#f5fff9" d="M 27.433594 88.359375 C 24.691406 90.742188 21.109375 92.1875 17.1875 92.1875 C 13.265625 92.1875 9.683594 90.742188 6.941406 88.359375 C 8.492188 84.203125 12.492188 81.25 17.1875 81.25 C 21.882812 81.25 25.882812 84.203125 27.433594 88.359375 " fill-opacity="1" fill-rule="nonzero"/><path fill="#f5fff9" d="M 23.4375 75 C 23.4375 78.453125 20.640625 81.25 17.1875 81.25 C 13.734375 81.25 10.9375 78.453125 10.9375 75 C 10.9375 71.546875 13.734375 68.75 17.1875 68.75 C 20.640625 68.75 23.4375 71.546875 23.4375 75 " fill-opacity="1" fill-rule="nonzero"/><path fill="#3b76c4" d="M 92.1875 76.5625 C 92.1875 85.191406 85.191406 92.1875 76.5625 92.1875 C 67.933594 92.1875 60.9375 85.191406 60.9375 76.5625 C 60.9375 67.933594 67.933594 60.9375 76.5625 60.9375 C 85.191406 60.9375 92.1875 67.933594 92.1875 76.5625 " fill-opacity="1" fill-rule="nonzero"/><path fill="#f5fff9" d="M 86.808594 88.359375 C 84.066406 90.742188 80.484375 92.1875 76.5625 92.1875 C 72.640625 92.1875 69.058594 90.742188 66.316406 88.359375 C 67.867188 84.203125 71.867188 81.25 76.5625 81.25 C 81.257812 81.25 85.257812 84.203125 86.808594 88.359375 " fill-opacity="1" fill-rule="nonzero"/><path fill="#f5fff9" d="M 82.8125 75 C 82.8125 78.453125 80.015625 81.25 76.5625 81.25 C 73.109375 81.25 70.3125 78.453125 70.3125 75 C 70.3125 71.546875 73.109375 68.75 76.5625 68.75 C 80.015625 68.75 82.8125 71.546875 82.8125 75 " fill-opacity="1" fill-rule="nonzero"/><g clip-path="url(#76679579a4)"><path fill="#0f1c37" d="M 87.242188 85.695312 C 85.933594 83.550781 84.007812 81.863281 81.757812 80.828125 C 83.363281 79.398438 84.375 77.316406 84.375 75 C 84.375 70.691406 80.871094 67.1875 76.5625 67.1875 C 72.253906 67.1875 68.75 70.691406 68.75 75 C 68.75 77.316406 69.761719 79.398438 71.367188 80.828125 C 69.117188 81.863281 67.191406 83.550781 65.882812 85.695312 C 63.777344 83.238281 62.5 80.046875 62.5 76.5625 C 62.5 68.808594 68.808594 62.5 76.5625 62.5 C 84.316406 62.5 90.625 68.808594 90.625 76.5625 C 90.625 80.046875 89.347656 83.238281 87.242188 85.695312 Z M 71.875 75 C 71.875 72.414062 73.976562 70.3125 76.5625 70.3125 C 79.148438 70.3125 81.25 72.414062 81.25 75 C 81.25 77.585938 79.148438 79.6875 76.5625 79.6875 C 73.976562 79.6875 71.875 77.585938 71.875 75 Z M 76.5625 90.625 C 73.449219 90.625 70.566406 89.605469 68.234375 87.882812 C 69.824219 84.8125 73.046875 82.8125 76.5625 82.8125 C 80.078125 82.8125 83.300781 84.8125 84.890625 87.882812 C 82.558594 89.605469 79.675781 90.625 76.5625 90.625 Z M 57.554688 56.007812 C 56.246094 53.863281 54.320312 52.175781 52.070312 51.140625 C 53.675781 49.710938 54.6875 47.628906 54.6875 45.3125 C 54.6875 41.003906 51.183594 37.5 46.875 37.5 C 42.566406 37.5 39.0625 41.003906 39.0625 45.3125 C 39.0625 47.628906 40.074219 49.710938 41.679688 51.140625 C 39.429688 52.175781 37.503906 53.863281 36.195312 56.007812 C 34.089844 53.550781 32.8125 50.359375 32.8125 46.875 C 32.8125 39.121094 39.121094 32.8125 46.875 32.8125 C 54.628906 32.8125 60.9375 39.121094 60.9375 46.875 C 60.9375 50.359375 59.660156 53.550781 57.554688 56.007812 Z M 42.1875 45.3125 C 42.1875 42.726562 44.289062 40.625 46.875 40.625 C 49.460938 40.625 51.5625 42.726562 51.5625 45.3125 C 51.5625 47.898438 49.460938 50 46.875 50 C 44.289062 50 42.1875 47.898438 42.1875 45.3125 Z M 46.875 60.9375 C 43.761719 60.9375 40.878906 59.917969 38.546875 58.195312 C 40.136719 55.125 43.359375 53.125 46.875 53.125 C 50.390625 53.125 53.613281 55.125 55.203125 58.195312 C 52.871094 59.917969 49.988281 60.9375 46.875 60.9375 Z M 31.25 76.5625 C 31.25 80.046875 29.972656 83.238281 27.867188 85.695312 C 26.558594 83.550781 24.632812 81.863281 22.382812 80.828125 C 23.988281 79.398438 25 77.316406 25 75 C 25 70.691406 21.496094 67.1875 17.1875 67.1875 C 12.878906 67.1875 9.375 70.691406 9.375 75 C 9.375 77.316406 10.386719 79.398438 11.992188 80.828125 C 9.742188 81.863281 7.816406 83.550781 6.507812 85.695312 C 4.402344 83.238281 3.125 80.046875 3.125 76.5625 C 3.125 68.808594 9.433594 62.5 17.1875 62.5 C 24.941406 62.5 31.25 68.808594 31.25 76.5625 Z M 12.5 75 C 12.5 72.414062 14.601562 70.3125 17.1875 70.3125 C 19.773438 70.3125 21.875 72.414062 21.875 75 C 21.875 77.585938 19.773438 79.6875 17.1875 79.6875 C 14.601562 79.6875 12.5 77.585938 12.5 75 Z M 17.1875 90.625 C 14.074219 90.625 11.191406 89.605469 8.859375 87.882812 C 10.449219 84.8125 13.671875 82.8125 17.1875 82.8125 C 20.703125 82.8125 23.925781 84.8125 25.515625 87.882812 C 23.183594 89.605469 20.300781 90.625 17.1875 90.625 Z M 27.867188 26.320312 C 26.558594 24.175781 24.632812 22.488281 22.382812 21.453125 C 23.988281 20.023438 25 17.941406 25 15.625 C 25 11.316406 21.496094 7.8125 17.1875 7.8125 C 12.878906 7.8125 9.375 11.316406 9.375 15.625 C 9.375 17.941406 10.386719 20.023438 11.992188 21.453125 C 9.742188 22.488281 7.816406 24.175781 6.507812 26.320312 C 4.402344 23.863281 3.125 20.671875 3.125 17.1875 C 3.125 9.433594 9.433594 3.125 17.1875 3.125 C 24.941406 3.125 31.25 9.433594 31.25 17.1875 C 31.25 20.671875 29.972656 23.863281 27.867188 26.320312 Z M 12.5 15.625 C 12.5 13.039062 14.601562 10.9375 17.1875 10.9375 C 19.773438 10.9375 21.875 13.039062 21.875 15.625 C 21.875 18.210938 19.773438 20.3125 17.1875 20.3125 C 14.601562 20.3125 12.5 18.210938 12.5 15.625 Z M 17.1875 31.25 C 14.074219 31.25 11.191406 30.230469 8.859375 28.507812 C 10.449219 25.4375 13.671875 23.4375 17.1875 23.4375 C 20.703125 23.4375 23.925781 25.4375 25.515625 28.507812 C 23.183594 30.230469 20.300781 31.25 17.1875 31.25 Z M 62.5 17.1875 C 62.5 9.433594 68.808594 3.125 76.5625 3.125 C 84.316406 3.125 90.625 9.433594 90.625 17.1875 C 90.625 20.671875 89.347656 23.863281 87.242188 26.320312 C 85.933594 24.175781 84.007812 22.488281 81.757812 21.453125 C 83.363281 20.023438 84.375 17.941406 84.375 15.625 C 84.375 11.316406 80.871094 7.8125 76.5625 7.8125 C 72.253906 7.8125 68.75 11.316406 68.75 15.625 C 68.75 17.941406 69.761719 20.023438 71.367188 21.453125 C 69.117188 22.488281 67.191406 24.175781 65.882812 26.320312 C 63.777344 23.863281 62.5 20.671875 62.5 17.1875 Z M 71.875 15.625 C 71.875 13.039062 73.976562 10.9375 76.5625 10.9375 C 79.148438 10.9375 81.25 13.039062 81.25 15.625 C 81.25 18.210938 79.148438 20.3125 76.5625 20.3125 C 73.976562 20.3125 71.875 18.210938 71.875 15.625 Z M 76.5625 31.25 C 73.449219 31.25 70.566406 30.230469 68.234375 28.507812 C 69.824219 25.4375 73.046875 23.4375 76.5625 23.4375 C 80.078125 23.4375 83.300781 25.4375 84.890625 28.507812 C 82.558594 30.230469 79.675781 31.25 76.5625 31.25 Z M 76.5625 59.375 C 72.386719 59.375 68.550781 60.875 65.570312 63.359375 L 60.078125 57.867188 C 62.5625 54.886719 64.0625 51.050781 64.0625 46.875 C 64.0625 42.699219 62.5625 38.863281 60.078125 35.882812 L 65.570312 30.390625 C 68.550781 32.875 72.386719 34.375 76.5625 34.375 C 86.039062 34.375 93.75 26.664062 93.75 17.1875 C 93.75 7.710938 86.039062 0 76.5625 0 C 67.085938 0 59.375 7.710938 59.375 17.1875 C 59.375 21.363281 60.875 25.199219 63.359375 28.179688 L 57.867188 33.671875 C 54.886719 31.1875 51.050781 29.6875 46.875 29.6875 C 42.699219 29.6875 38.863281 31.1875 35.882812 33.671875 L 30.390625 28.179688 C 32.875 25.199219 34.375 21.363281 34.375 17.1875 C 34.375 7.710938 26.664062 0 17.1875 0 C 7.710938 0 0 7.710938 0 17.1875 C 0 26.664062 7.710938 34.375 17.1875 34.375 C 21.363281 34.375 25.199219 32.875 28.179688 30.390625 L 33.671875 35.882812 C 31.1875 38.863281 29.6875 42.699219 29.6875 46.875 C 29.6875 51.050781 31.1875 54.886719 33.671875 57.867188 L 28.179688 63.359375 C 25.199219 60.875 21.363281 59.375 17.1875 59.375 C 7.710938 59.375 0 67.085938 0 76.5625 C 0 86.039062 7.710938 93.75 17.1875 93.75 C 26.664062 93.75 34.375 86.039062 34.375 76.5625 C 34.375 72.386719 32.875 68.550781 30.390625 65.570312 L 35.882812 60.078125 C 38.863281 62.5625 42.699219 64.0625 46.875 64.0625 C 51.050781 64.0625 54.886719 62.5625 57.867188 60.078125 L 63.359375 65.570312 C 60.875 68.550781 59.375 72.386719 59.375 76.5625 C 59.375 86.039062 67.085938 93.75 76.5625 93.75 C 86.039062 93.75 93.75 86.039062 93.75 76.5625 C 93.75 67.085938 86.039062 59.375 76.5625 59.375 " fill-opacity="1" fill-rule="nonzero"/></g></svg>