<svg xmlns="http://www.w3.org/2000/svg" xmlns:xlink="http://www.w3.org/1999/xlink" width="40" zoomAndPan="magnify" viewBox="0 0 30 30.000001" height="40" preserveAspectRatio="xMidYMid meet" version="1.0"><defs><clipPath id="19b547bd30"><path d="M 4.078125 3.59375 L 12 3.59375 L 12 12 L 4.078125 12 Z M 4.078125 3.59375 " clip-rule="nonzero"/></clipPath><clipPath id="681ee741d0"><path d="M 18 3.59375 L 25.851562 3.59375 L 25.851562 12 L 18 12 Z M 18 3.59375 " clip-rule="nonzero"/></clipPath><clipPath id="488492e5c8"><path d="M 4.078125 17 L 12 17 L 12 25.367188 L 4.078125 25.367188 Z M 4.078125 17 " clip-rule="nonzero"/></clipPath><clipPath id="4594654807"><path d="M 5 22 L 11 22 L 11 25.367188 L 5 25.367188 Z M 5 22 " clip-rule="nonzero"/></clipPath><clipPath id="bc0a99f6b6"><path d="M 18 17 L 25.851562 17 L 25.851562 25.367188 L 18 25.367188 Z M 18 17 " clip-rule="nonzero"/></clipPath><clipPath id="e8a41256da"><path d="M 19 22 L 25 22 L 25 25.367188 L 19 25.367188 Z M 19 22 " clip-rule="nonzero"/></clipPath><clipPath id="72e2eeabf8"><path d="M 4.078125 3.59375 L 25.851562 3.59375 L 25.851562 25.367188 L 4.078125 25.367188 Z M 4.078125 3.59375 " clip-rule="nonzero"/></clipPath></defs><g clip-path="url(#19b547bd30)"><path fill="#3b76c4" d="M 11.699219 7.585938 C 11.699219 9.589844 10.074219 11.214844 8.070312 11.214844 C 6.0625 11.214844 4.441406 9.589844 4.441406 7.585938 C 4.441406 5.582031 6.0625 3.957031 8.070312 3.957031 C 10.074219 3.957031 11.699219 5.582031 11.699219 7.585938 " fill-opacity="1" fill-rule="nonzero"/></g><path fill="#f5fff9" d="M 10.449219 10.324219 C 9.8125 10.878906 8.980469 11.214844 8.070312 11.214844 C 7.15625 11.214844 6.324219 10.878906 5.6875 10.324219 C 6.050781 9.359375 6.976562 8.671875 8.070312 8.671875 C 9.160156 8.671875 10.089844 9.359375 10.449219 10.324219 " fill-opacity="1" fill-rule="nonzero"/><path fill="#f5fff9" d="M 9.519531 7.222656 C 9.519531 8.023438 8.871094 8.671875 8.070312 8.671875 C 7.265625 8.671875 6.617188 8.023438 6.617188 7.222656 C 6.617188 6.421875 7.265625 5.769531 8.070312 5.769531 C 8.871094 5.769531 9.519531 6.421875 9.519531 7.222656 " fill-opacity="1" fill-rule="nonzero"/><path fill="#3b76c4" d="M 18.59375 14.480469 C 18.59375 16.484375 16.96875 18.109375 14.964844 18.109375 C 12.960938 18.109375 11.335938 16.484375 11.335938 14.480469 C 11.335938 12.476562 12.960938 10.851562 14.964844 10.851562 C 16.96875 10.851562 18.59375 12.476562 18.59375 14.480469 " fill-opacity="1" fill-rule="nonzero"/><path fill="#f5fff9" d="M 17.34375 17.21875 C 16.707031 17.773438 15.875 18.109375 14.964844 18.109375 C 14.054688 18.109375 13.222656 17.773438 12.582031 17.21875 C 12.945312 16.253906 13.875 15.570312 14.964844 15.570312 C 16.054688 15.570312 16.984375 16.253906 17.34375 17.21875 " fill-opacity="1" fill-rule="nonzero"/><path fill="#f5fff9" d="M 16.414062 14.117188 C 16.414062 14.917969 15.765625 15.570312 14.964844 15.570312 C 14.160156 15.570312 13.511719 14.917969 13.511719 14.117188 C 13.511719 13.316406 14.160156 12.664062 14.964844 12.664062 C 15.765625 12.664062 16.414062 13.316406 16.414062 14.117188 " fill-opacity="1" fill-rule="nonzero"/><g clip-path="url(#681ee741d0)"><path fill="#3b76c4" d="M 25.488281 7.585938 C 25.488281 9.589844 23.863281 11.214844 21.859375 11.214844 C 19.855469 11.214844 18.230469 9.589844 18.230469 7.585938 C 18.230469 5.582031 19.855469 3.957031 21.859375 3.957031 C 23.863281 3.957031 25.488281 5.582031 25.488281 7.585938 " fill-opacity="1" fill-rule="nonzero"/></g><path fill="#f5fff9" d="M 24.238281 10.324219 C 23.601562 10.878906 22.769531 11.214844 21.859375 11.214844 C 20.949219 11.214844 20.117188 10.878906 19.480469 10.324219 C 19.839844 9.359375 20.769531 8.671875 21.859375 8.671875 C 22.949219 8.671875 23.878906 9.359375 24.238281 10.324219 " fill-opacity="1" fill-rule="nonzero"/><path fill="#f5fff9" d="M 23.308594 7.222656 C 23.308594 8.023438 22.660156 8.671875 21.859375 8.671875 C 21.058594 8.671875 20.40625 8.023438 20.40625 7.222656 C 20.40625 6.421875 21.058594 5.769531 21.859375 5.769531 C 22.660156 5.769531 23.308594 6.421875 23.308594 7.222656 " fill-opacity="1" fill-rule="nonzero"/><g clip-path="url(#488492e5c8)"><path fill="#3b76c4" d="M 11.699219 21.375 C 11.699219 23.378906 10.074219 25.003906 8.070312 25.003906 C 6.0625 25.003906 4.441406 23.378906 4.441406 21.375 C 4.441406 19.371094 6.0625 17.746094 8.070312 17.746094 C 10.074219 17.746094 11.699219 19.371094 11.699219 21.375 " fill-opacity="1" fill-rule="nonzero"/></g><g clip-path="url(#4594654807)"><path fill="#f5fff9" d="M 10.449219 24.113281 C 9.8125 24.667969 8.980469 25.003906 8.070312 25.003906 C 7.15625 25.003906 6.324219 24.667969 5.6875 24.113281 C 6.050781 23.148438 6.976562 22.464844 8.070312 22.464844 C 9.160156 22.464844 10.089844 23.148438 10.449219 24.113281 " fill-opacity="1" fill-rule="nonzero"/></g><path fill="#f5fff9" d="M 9.519531 21.011719 C 9.519531 21.8125 8.871094 22.464844 8.070312 22.464844 C 7.265625 22.464844 6.617188 21.8125 6.617188 21.011719 C 6.617188 20.210938 7.265625 19.558594 8.070312 19.558594 C 8.871094 19.558594 9.519531 20.210938 9.519531 21.011719 " fill-opacity="1" fill-rule="nonzero"/><g clip-path="url(#bc0a99f6b6)"><path fill="#3b76c4" d="M 25.488281 21.375 C 25.488281 23.378906 23.863281 25.003906 21.859375 25.003906 C 19.855469 25.003906 18.230469 23.378906 18.230469 21.375 C 18.230469 19.371094 19.855469 17.746094 21.859375 17.746094 C 23.863281 17.746094 25.488281 19.371094 25.488281 21.375 " fill-opacity="1" fill-rule="nonzero"/></g><g clip-path="url(#e8a41256da)"><path fill="#f5fff9" d="M 24.238281 24.113281 C 23.601562 24.667969 22.769531 25.003906 21.859375 25.003906 C 20.949219 25.003906 20.117188 24.667969 19.480469 24.113281 C 19.839844 23.148438 20.769531 22.464844 21.859375 22.464844 C 22.949219 22.464844 23.878906 23.148438 24.238281 24.113281 " fill-opacity="1" fill-rule="nonzero"/></g><path fill="#f5fff9" d="M 23.308594 21.011719 C 23.308594 21.8125 22.660156 22.464844 21.859375 22.464844 C 21.058594 22.464844 20.40625 21.8125 20.40625 21.011719 C 20.40625 20.210938 21.058594 19.558594 21.859375 19.558594 C 22.660156 19.558594 23.308594 20.210938 23.308594 21.011719 " fill-opacity="1" fill-rule="nonzero"/><g clip-path="url(#72e2eeabf8)"><path fill="#0f1c37" d="M 24.339844 23.496094 C 24.035156 23 23.589844 22.605469 23.066406 22.367188 C 23.4375 22.035156 23.671875 21.550781 23.671875 21.011719 C 23.671875 20.011719 22.859375 19.199219 21.859375 19.199219 C 20.859375 19.199219 20.042969 20.011719 20.042969 21.011719 C 20.042969 21.550781 20.28125 22.035156 20.652344 22.367188 C 20.128906 22.605469 19.683594 23 19.378906 23.496094 C 18.890625 22.925781 18.59375 22.183594 18.59375 21.375 C 18.59375 19.574219 20.058594 18.109375 21.859375 18.109375 C 23.660156 18.109375 25.125 19.574219 25.125 21.375 C 25.125 22.183594 24.828125 22.925781 24.339844 23.496094 Z M 20.769531 21.011719 C 20.769531 20.410156 21.257812 19.921875 21.859375 19.921875 C 22.460938 19.921875 22.949219 20.410156 22.949219 21.011719 C 22.949219 21.613281 22.460938 22.101562 21.859375 22.101562 C 21.257812 22.101562 20.769531 21.613281 20.769531 21.011719 Z M 21.859375 24.640625 C 21.136719 24.640625 20.464844 24.402344 19.925781 24.003906 C 20.292969 23.289062 21.042969 22.828125 21.859375 22.828125 C 22.675781 22.828125 23.421875 23.289062 23.792969 24.003906 C 23.25 24.402344 22.582031 24.640625 21.859375 24.640625 Z M 17.445312 16.601562 C 17.140625 16.101562 16.691406 15.710938 16.171875 15.472656 C 16.542969 15.136719 16.777344 14.65625 16.777344 14.117188 C 16.777344 13.117188 15.964844 12.300781 14.964844 12.300781 C 13.964844 12.300781 13.148438 13.117188 13.148438 14.117188 C 13.148438 14.65625 13.382812 15.136719 13.757812 15.472656 C 13.234375 15.710938 12.789062 16.101562 12.484375 16.601562 C 11.992188 16.03125 11.699219 15.289062 11.699219 14.480469 C 11.699219 12.679688 13.164062 11.214844 14.964844 11.214844 C 16.765625 11.214844 18.230469 12.679688 18.230469 14.480469 C 18.230469 15.289062 17.933594 16.03125 17.445312 16.601562 Z M 13.875 14.117188 C 13.875 13.515625 14.363281 13.027344 14.964844 13.027344 C 15.5625 13.027344 16.050781 13.515625 16.050781 14.117188 C 16.050781 14.71875 15.5625 15.207031 14.964844 15.207031 C 14.363281 15.207031 13.875 14.71875 13.875 14.117188 Z M 14.964844 17.746094 C 14.238281 17.746094 13.570312 17.507812 13.027344 17.109375 C 13.398438 16.394531 14.148438 15.929688 14.964844 15.929688 C 15.78125 15.929688 16.527344 16.394531 16.898438 17.109375 C 16.355469 17.507812 15.6875 17.746094 14.964844 17.746094 Z M 11.335938 21.375 C 11.335938 22.183594 11.039062 22.925781 10.550781 23.496094 C 10.246094 23 9.796875 22.605469 9.273438 22.367188 C 9.648438 22.035156 9.882812 21.550781 9.882812 21.011719 C 9.882812 20.011719 9.070312 19.199219 8.070312 19.199219 C 7.066406 19.199219 6.253906 20.011719 6.253906 21.011719 C 6.253906 21.550781 6.488281 22.035156 6.863281 22.367188 C 6.339844 22.605469 5.890625 23 5.589844 23.496094 C 5.097656 22.925781 4.800781 22.183594 4.800781 21.375 C 4.800781 19.574219 6.265625 18.109375 8.070312 18.109375 C 9.871094 18.109375 11.335938 19.574219 11.335938 21.375 Z M 6.980469 21.011719 C 6.980469 20.410156 7.46875 19.921875 8.070312 19.921875 C 8.667969 19.921875 9.15625 20.410156 9.15625 21.011719 C 9.15625 21.613281 8.667969 22.101562 8.070312 22.101562 C 7.46875 22.101562 6.980469 21.613281 6.980469 21.011719 Z M 8.070312 24.640625 C 7.34375 24.640625 6.675781 24.402344 6.132812 24.003906 C 6.503906 23.289062 7.25 22.828125 8.070312 22.828125 C 8.886719 22.828125 9.632812 23.289062 10.003906 24.003906 C 9.460938 24.402344 8.792969 24.640625 8.070312 24.640625 Z M 10.550781 9.707031 C 10.246094 9.207031 9.796875 8.816406 9.273438 8.574219 C 9.648438 8.242188 9.882812 7.757812 9.882812 7.222656 C 9.882812 6.222656 9.070312 5.40625 8.070312 5.40625 C 7.066406 5.40625 6.253906 6.222656 6.253906 7.222656 C 6.253906 7.757812 6.488281 8.242188 6.863281 8.574219 C 6.339844 8.816406 5.890625 9.207031 5.589844 9.707031 C 5.097656 9.136719 4.800781 8.394531 4.800781 7.585938 C 4.800781 5.785156 6.265625 4.320312 8.070312 4.320312 C 9.871094 4.320312 11.335938 5.785156 11.335938 7.585938 C 11.335938 8.394531 11.039062 9.136719 10.550781 9.707031 Z M 6.980469 7.222656 C 6.980469 6.621094 7.46875 6.132812 8.070312 6.132812 C 8.667969 6.132812 9.15625 6.621094 9.15625 7.222656 C 9.15625 7.820312 8.667969 8.308594 8.070312 8.308594 C 7.46875 8.308594 6.980469 7.820312 6.980469 7.222656 Z M 8.070312 10.851562 C 7.34375 10.851562 6.675781 10.613281 6.132812 10.214844 C 6.503906 9.5 7.25 9.035156 8.070312 9.035156 C 8.886719 9.035156 9.632812 9.5 10.003906 10.214844 C 9.460938 10.613281 8.792969 10.851562 8.070312 10.851562 Z M 18.59375 7.585938 C 18.59375 5.785156 20.058594 4.320312 21.859375 4.320312 C 23.660156 4.320312 25.125 5.785156 25.125 7.585938 C 25.125 8.394531 24.828125 9.136719 24.339844 9.707031 C 24.035156 9.207031 23.589844 8.816406 23.066406 8.574219 C 23.4375 8.242188 23.671875 7.757812 23.671875 7.222656 C 23.671875 6.222656 22.859375 5.40625 21.859375 5.40625 C 20.859375 5.40625 20.042969 6.222656 20.042969 7.222656 C 20.042969 7.757812 20.28125 8.242188 20.652344 8.574219 C 20.128906 8.816406 19.683594 9.207031 19.378906 9.707031 C 18.890625 9.136719 18.59375 8.394531 18.59375 7.585938 Z M 20.769531 7.222656 C 20.769531 6.621094 21.257812 6.132812 21.859375 6.132812 C 22.460938 6.132812 22.949219 6.621094 22.949219 7.222656 C 22.949219 7.820312 22.460938 8.308594 21.859375 8.308594 C 21.257812 8.308594 20.769531 7.820312 20.769531 7.222656 Z M 21.859375 10.851562 C 21.136719 10.851562 20.464844 10.613281 19.925781 10.214844 C 20.292969 9.5 21.042969 9.035156 21.859375 9.035156 C 22.675781 9.035156 23.421875 9.5 23.792969 10.214844 C 23.25 10.613281 22.582031 10.851562 21.859375 10.851562 Z M 21.859375 17.382812 C 20.890625 17.382812 20 17.730469 19.304688 18.308594 L 18.03125 17.03125 C 18.609375 16.339844 18.957031 15.449219 18.957031 14.480469 C 18.957031 13.507812 18.609375 12.621094 18.03125 11.925781 L 19.304688 10.652344 C 20 11.230469 20.890625 11.578125 21.859375 11.578125 C 24.058594 11.578125 25.851562 9.785156 25.851562 7.585938 C 25.851562 5.382812 24.058594 3.59375 21.859375 3.59375 C 19.65625 3.59375 17.867188 5.382812 17.867188 7.585938 C 17.867188 8.554688 18.214844 9.445312 18.792969 10.136719 L 17.515625 11.414062 C 16.824219 10.835938 15.933594 10.488281 14.964844 10.488281 C 13.992188 10.488281 13.101562 10.835938 12.410156 11.414062 L 11.136719 10.136719 C 11.710938 9.445312 12.058594 8.554688 12.058594 7.585938 C 12.058594 5.382812 10.269531 3.59375 8.070312 3.59375 C 5.867188 3.59375 4.078125 5.382812 4.078125 7.585938 C 4.078125 9.785156 5.867188 11.578125 8.070312 11.578125 C 9.039062 11.578125 9.929688 11.230469 10.621094 10.652344 L 11.898438 11.925781 C 11.320312 12.621094 10.972656 13.507812 10.972656 14.480469 C 10.972656 15.449219 11.320312 16.339844 11.898438 17.03125 L 10.621094 18.308594 C 9.929688 17.730469 9.039062 17.382812 8.070312 17.382812 C 5.867188 17.382812 4.078125 19.175781 4.078125 21.375 C 4.078125 23.574219 5.867188 25.367188 8.070312 25.367188 C 10.269531 25.367188 12.058594 23.574219 12.058594 21.375 C 12.058594 20.40625 11.710938 19.515625 11.136719 18.820312 L 12.410156 17.546875 C 13.101562 18.125 13.992188 18.472656 14.964844 18.472656 C 15.933594 18.472656 16.824219 18.125 17.515625 17.546875 L 18.792969 18.820312 C 18.214844 19.515625 17.867188 20.40625 17.867188 21.375 C 17.867188 23.574219 19.65625 25.367188 21.859375 25.367188 C 24.058594 25.367188 25.851562 23.574219 25.851562 21.375 C 25.851562 19.175781 24.058594 17.382812 21.859375 17.382812 " fill-opacity="1" fill-rule="nonzero"/></g></svg>